<?xml version="1.0" standalone="no"?>
<!DOCTYPE svg PUBLIC "-//W3C//DTD SVG 20010904//EN"
 "http://www.w3.org/TR/2001/REC-SVG-20010904/DTD/svg10.dtd">
<svg version="1.0" xmlns="http://www.w3.org/2000/svg"
 width="125.000000pt" height="140.000000pt" viewBox="0 0 125.000000 140.000000"
 preserveAspectRatio="xMidYMid meet">

<g transform="translate(0.000000,140.000000) scale(0.100000,-0.100000)"
fill="#000000" stroke="none">
<path d="M161 1261 c-20 -20 -21 -32 -21 -190 0 -229 -13 -215 202 -219 225
-3 213 -12 213 159 0 132 -1 137 -28 176 -48 69 -94 87 -228 91 -108 4 -119 2
-138 -17z"/>
<path d="M719 1253 c-40 -21 -61 -40 -83 -76 -27 -44 -30 -58 -34 -160 -4
-101 -2 -114 16 -137 20 -25 21 -25 197 -25 229 0 215 -13 215 207 0 154 -6
192 -34 210 -6 4 -59 8 -117 8 -95 0 -111 -3 -160 -27z"/>
<path d="M4 985 c0 -49 1 -71 3 -48 2 23 2 64 0 90 -2 26 -3 8 -3 -42z"/>
<path d="M0 773 c0 -60 3 -83 10 -73 13 20 13 147 0 155 -6 4 -10 -26 -10 -82z"/>
<path d="M625 806 c-15 -11 -20 -29 -22 -87 -3 -69 -2 -72 10 -41 19 51 66
102 111 123 l41 19 -61 0 c-36 0 -68 -6 -79 -14z"/>
<path d="M924 801 c-73 -33 -124 -115 -124 -202 0 -57 46 -137 98 -170 40 -25
56 -29 117 -29 63 0 77 4 116 30 138 91 124 297 -24 369 -54 26 -128 27 -183
2z"/>
<path d="M156 788 c-13 -18 -16 -55 -16 -190 0 -223 -15 -208 213 -208 156 0
176 2 190 18 15 16 17 45 17 198 0 127 -4 184 -12 192 -8 8 -66 12 -194 12
-178 0 -183 -1 -198 -22z"/>
<path d="M0 570 c0 -65 3 -90 10 -80 13 19 13 141 0 160 -7 10 -10 -15 -10
-80z"/>
<path d="M600 504 c0 -85 16 -104 88 -104 l56 0 -46 29 c-32 20 -53 44 -72 82
l-26 53 0 -60z"/>
<path d="M151 248 c1 -37 2 -39 9 -18 l8 25 7 -23 c9 -26 29 -24 33 4 2 14 1
15 -6 6 -7 -10 -12 -6 -22 17 -18 44 -30 38 -29 -11z"/>
<path d="M216 281 c-8 -13 5 -71 15 -71 5 0 9 18 9 40 0 37 -11 52 -24 31z"/>
<path d="M260 270 c-16 -30 4 -60 40 -60 23 0 31 5 36 25 9 38 -2 55 -35 55
-20 0 -34 -7 -41 -20z m55 -20 c0 -16 -6 -26 -18 -28 -19 -4 -32 20 -23 44 9
25 41 13 41 -16z"/>
<path d="M360 270 c-17 -32 4 -60 43 -59 l32 1 -30 7 c-24 5 -30 12 -30 31 0
19 6 26 30 31 l30 7 -32 1 c-23 1 -35 -5 -43 -19z"/>
<path d="M440 250 c0 -22 5 -40 10 -40 6 0 10 18 10 40 0 22 -4 40 -10 40 -5
0 -10 -18 -10 -40z"/>
<path d="M480 270 c-8 -14 -7 -25 2 -40 18 -28 30 -25 16 5 -8 19 -8 28 2 40
8 10 9 15 2 15 -6 0 -16 -9 -22 -20z"/>
<path d="M530 270 c-16 -30 4 -60 40 -60 32 0 46 25 35 60 -4 14 -15 20 -35
20 -19 0 -33 -7 -40 -20z m55 -20 c0 -29 -32 -41 -41 -16 -9 24 4 48 23 44 12
-2 18 -12 18 -28z"/>
<path d="M630 250 c0 -38 2 -40 29 -40 28 0 30 2 29 40 0 37 -2 40 -29 40 -27
0 -29 -3 -29 -40z m37 0 c0 -18 -6 -30 -14 -30 -8 0 -13 12 -13 30 0 18 5 30
13 30 8 0 14 -12 14 -30z"/>
<path d="M710 270 c-17 -32 4 -60 43 -59 l32 1 -30 7 c-24 5 -30 12 -30 31 0
19 6 26 30 31 l30 7 -32 1 c-23 1 -35 -5 -43 -19z"/>
<path d="M790 250 c0 -22 5 -40 10 -40 6 0 10 18 10 40 0 22 -4 40 -10 40 -5
0 -10 -18 -10 -40z"/>
<path d="M830 270 c-8 -14 -7 -25 2 -40 18 -28 30 -25 16 5 -8 19 -8 28 2 40
8 10 9 15 2 15 -6 0 -16 -9 -22 -20z"/>
<path d="M887 250 c-19 -48 -8 -53 16 -7 13 23 16 25 13 10 -3 -15 1 -23 10
-23 8 0 14 -4 14 -10 0 -5 4 -10 9 -10 5 0 2 18 -6 40 -9 22 -21 40 -28 40 -7
0 -19 -18 -28 -40z"/>
<path d="M975 280 c-4 -6 -1 -17 5 -25 10 -12 10 -18 0 -30 -7 -8 -8 -15 -2
-15 5 0 15 7 22 15 10 12 10 19 2 27 -16 16 -15 28 3 28 10 0 15 -11 15 -35 0
-19 5 -35 10 -35 6 0 10 18 10 40 0 38 -2 40 -29 40 -17 0 -33 -5 -36 -10z"/>
<path d="M4 165 c0 -50 1 -71 3 -48 2 23 2 64 0 90 -2 26 -3 8 -3 -42z"/>
<path d="M160 140 c-37 -37 11 -85 56 -55 30 19 31 39 2 59 -29 20 -34 20 -58
-4z m16 -37 c-11 -11 -19 6 -11 24 8 17 8 17 12 0 3 -10 2 -21 -1 -24z m44 11
c0 -8 -4 -14 -10 -14 -5 0 -10 9 -10 21 0 11 5 17 10 14 6 -3 10 -13 10 -21z"/>
<path d="M910 114 c0 -27 4 -43 10 -39 6 3 10 21 10 40 0 27 4 34 23 38 16 3
13 5 -10 6 -33 1 -33 0 -33 -45z"/>
<path d="M263 133 c-27 -10 -7 -63 24 -63 19 0 16 18 -4 23 -14 4 -12 5 5 6
25 1 28 11 10 29 -13 13 -16 13 -35 5z"/>
<path d="M347 133 c-4 -3 -7 -15 -7 -25 0 -10 -4 -18 -10 -18 -5 0 -10 -10 -9
-22 0 -13 3 -17 6 -10 6 15 63 16 63 0 0 -6 2 -9 5 -6 3 3 3 24 -1 47 -5 29
-11 41 -24 41 -9 0 -20 -3 -23 -7z m33 -28 c0 -8 -7 -15 -15 -15 -9 0 -12 6
-9 15 4 8 10 15 15 15 5 0 9 -7 9 -15z"/>
<path d="M421 126 c-17 -20 2 -56 29 -56 27 0 25 18 -2 23 l-23 4 23 2 c17 1
22 6 20 18 -4 23 -31 28 -47 9z m36 -12 c-3 -3 -12 -4 -19 -1 -8 3 -5 6 6 6
11 1 17 -2 13 -5z"/>
<path d="M497 133 c-4 -3 -7 -25 -7 -47 0 -23 4 -36 8 -30 4 6 15 13 25 17 9
4 20 13 23 22 11 27 -29 58 -49 38z m33 -28 c0 -8 -7 -15 -15 -15 -8 0 -15 7
-15 15 0 8 7 15 15 15 8 0 15 -7 15 -15z"/>
<path d="M570 130 c0 -5 8 -10 18 -11 12 0 11 -3 -6 -10 -31 -12 -23 -34 11
-34 23 -1 27 3 27 26 0 15 -7 29 -16 33 -23 9 -34 7 -34 -4z"/>
<path d="M641 108 c-1 -36 1 -38 29 -38 17 0 30 -5 30 -12 0 -6 2 -9 5 -6 9 9
-7 88 -16 82 -5 -3 -9 -14 -9 -25 0 -30 -28 -23 -33 9 -3 22 -4 20 -6 -10z"/>
<path d="M731 106 c-1 -33 1 -37 14 -26 16 13 21 35 6 25 -5 -3 -12 5 -14 17
-3 14 -5 8 -6 -16z"/>
<path d="M767 133 c-8 -13 5 -63 14 -57 12 7 12 51 0 59 -5 3 -12 2 -14 -2z"/>
<path d="M816 128 c-13 -41 -14 -59 -3 -55 7 2 12 14 11 26 0 11 3 21 8 21 4
0 8 -11 8 -25 0 -14 5 -25 10 -25 6 0 10 16 10 35 0 29 -4 35 -20 35 -11 0
-22 -6 -24 -12z"/>
<path d="M982 128 c-16 -16 -15 -33 3 -48 21 -18 55 -3 55 25 0 32 -35 46 -58
23z m36 -25 c-4 -22 -22 -20 -26 1 -2 10 3 16 13 16 10 0 15 -7 13 -17z"/>
</g>
</svg>
